<?xml version="1.0" encoding="utf-8"?>
<!-- Generator: Adobe Illustrator 25.2.0, SVG Export Plug-In . SVG Version: 6.00 Build 0)  -->
<svg version="1.1" id="Layer_1" xmlns="http://www.w3.org/2000/svg" xmlns:xlink="http://www.w3.org/1999/xlink" x="0px" y="0px"
	 viewBox="0 0 406 306" style="enable-background:new 0 0 406 306;" xml:space="preserve">
<style type="text/css">
	.st0{opacity:0.3;fill:#E6E6E6;enable-background:new    ;}
	.st1{fill:#E6E6E6;}
	.st2{fill:#FFD200;}
	.st3{fill:#FFFFFF;}
	.st4{fill:#24285B;}
	.st5{opacity:0.21;fill:#FFFFFF;enable-background:new    ;}
	.st6{fill:#68E1FD;}
	.st7{opacity:9.000000e-02;enable-background:new    ;}
	.st8{opacity:0.6;fill:#FFFFFF;enable-background:new    ;}
	.st9{opacity:0.46;fill:#FFFFFF;enable-background:new    ;}
</style>
<path class="st0" d="M120.6,12.6C81,26.1,14,48.2,3,105.5c-8.2,42.9-4.4,154.9,70.3,182.3C173.8,324.6,347,306.7,384.5,224
	C408.5,171,415,64,341.3,31.9C291.4,10.3,205.7-16.1,120.6,12.6z"/>
<rect x="192.6" y="73.6" class="st1" width="7.1" height="63.7"/>
<polygon class="st1" points="298.2,113.5 321.5,62.7 327.9,66.1 304.5,116.9 "/>
<polygon class="st1" points="216.6,196.1 221.2,190.1 280.3,242.8 275.8,248.7 "/>
<path class="st1" d="M283.5,247.5c0.6-1.1,0.7-2.4,0.1-3.5l-6.4,3.4c-1.6-3.6,1.3-6,8.4-12c4.1-3.4,9.9-8.1,17.2-13.8
	c12.5-9.7,25.2-19.3,25.3-19.4l4.1,6.3C313.5,222.8,286,244.2,283.5,247.5z"/>
<polygon class="st1" points="225.4,164.6 222.9,157.4 298.2,126.6 385.7,121.9 386.1,129.6 299.7,134.3 "/>
<polygon class="st1" points="104.6,236.2 160.5,198.2 164.3,204.8 108.4,242.8 "/>
<polygon class="st1" points="124.5,120.4 129.9,115.3 165.1,158.5 159.7,163.6 "/>
<polygon class="st1" points="33.9,174.7 30.5,167.9 98.1,127.3 25.2,67.5 29.5,61.3 111.1,128.3 "/>
<path class="st2" d="M239.4,173.8c0-28.3-21.1-51.2-47.2-51.2c-26.1,0-47.3,22.9-47.3,51.2c0,13.2,4.7,25.8,13.1,35.4
	c6.7,7.7,10.4,18,10.3,28.6v1.8H215v-1.3c0.1-10.8,4-21.1,11-28.7C234.6,199.9,239.4,187.1,239.4,173.8z"/>
<path class="st3" d="M179.4,239.6c-0.8,0-1.5-0.6-1.6-1.4l-9.9-64.8c-0.2-1,0.5-1.9,1.4-2.1c0.9-0.2,1.7,0.5,1.9,1.5l9.9,64.8
	c0.1,1-0.4,1.9-1.3,2.1L179.4,239.6z"/>
<path class="st3" d="M204.2,239.6h-0.3c-0.9-0.2-1.5-1.1-1.3-2.1l9.9-64.8c0.2-1,1-1.6,1.9-1.5c0.9,0.2,1.5,1.1,1.4,2.1l-9.9,64.8
	C205.7,239,205,239.6,204.2,239.6z"/>
<rect x="165.4" y="231.6" class="st4" width="53.5" height="45.8"/>
<path class="st3" d="M197,186.5c-2.1,0-4.1-1.4-6-4c-0.8-1.1-1.5-1.6-2.2-1.5c-1.6,0.2-3.4,2.9-4,4.3c-0.4,0.9-1.4,1.2-2.2,0.8
	c-0.8-0.4-1.1-1.5-0.7-2.4c0.3-0.6,2.8-5.8,6.6-6.2c2.1-0.1,4,1,5.1,2.9c0.9,1.3,2.3,2.8,3.6,2.6c1.5-0.2,2.9-2.4,3.2-3.2
	c0.4-0.9,1.4-1.2,2.2-0.8c0.8,0.4,1.1,1.4,0.8,2.3c-0.2,0.5-2.2,4.8-5.8,5.2L197,186.5z"/>
<ellipse transform="matrix(0.5304 -0.8477 0.8477 0.5304 -25.5557 245.3356)" class="st5" cx="208.7" cy="145.7" rx="12.2" ry="14.9"/>
<path class="st4" d="M174.2,277.4h35.9l0,0l0,0c0,9.9-7.4,17.9-16.5,17.9h-3C181.5,295.3,174.2,287.3,174.2,277.4L174.2,277.4
	L174.2,277.4z"/>
<path class="st6" d="M83.5,87.3h42.3c5.6,0,10.2,5,10.2,11.1v45.8c0,6.1-4.6,11.1-10.2,11.1H83.5c-5.6,0-10.2-5-10.2-11.1V98.4
	C73.3,92.3,77.8,87.3,83.5,87.3z"/>
<path class="st6" d="M277.8,100h42.3c5.6,0,10.2,5,10.2,11.1v45.8c0,6.1-4.6,11.1-10.2,11.1h-42.3c-5.6,0-10.2-5-10.2-11.1V111
	C267.6,104.9,272.2,100,277.8,100z"/>
<path class="st7" d="M277.8,100h42.3c5.6,0,10.2,5,10.2,11.1v45.8c0,6.1-4.6,11.1-10.2,11.1h-42.3c-5.6,0-10.2-5-10.2-11.1V111
	C267.6,104.9,272.2,100,277.8,100z"/>
<path class="st6" d="M74.7,201.5H117c5.6,0,10.2,5,10.2,11.1v45.8c0,6.1-4.6,11.1-10.2,11.1H74.7c-5.6,0-10.2-5-10.2-11.1v-45.8
	C64.5,206.5,69.1,201.5,74.7,201.5z"/>
<path class="st8" d="M74.7,201.5H117c5.6,0,10.2,5,10.2,11.1v45.8c0,6.1-4.6,11.1-10.2,11.1H74.7c-5.6,0-10.2-5-10.2-11.1v-45.8
	C64.5,206.5,69.1,201.5,74.7,201.5z"/>
<path class="st6" d="M265,220.8h31c4.1,0,7.5,3.6,7.5,8.1v33.6c0,4.5-3.4,8.1-7.5,8.1h-31c-4.1,0-7.5-3.6-7.5-8.1v-33.6
	C257.5,224.4,260.8,220.8,265,220.8z"/>
<path class="st6" d="M175.4,31.2h41.4c5.5,0,10,4.8,10,10.8v44.8c0,6-4.5,10.8-10,10.8h-41.4c-5.5,0-10-4.8-10-10.8V42
	C165.5,36,169.9,31.2,175.4,31.2z"/>
<path class="st9" d="M175.4,31.2h41.4c5.5,0,10,4.8,10,10.8v44.8c0,6-4.5,10.8-10,10.8h-41.4c-5.5,0-10-4.8-10-10.8V42
	C165.5,36,169.9,31.2,175.4,31.2z"/>
<path class="st6" d="M13.9,41.9h25.9c3.4,0,6.2,3,6.2,6.8v28c0,3.7-2.8,6.8-6.2,6.8H13.9c-3.4,0-6.2-3-6.2-6.8v-28
	C7.6,44.9,10.4,41.9,13.9,41.9z"/>
<path class="st9" d="M13.9,41.9h25.9c3.4,0,6.2,3,6.2,6.8v28c0,3.7-2.8,6.8-6.2,6.8H13.9c-3.4,0-6.2-3-6.2-6.8v-28
	C7.6,44.9,10.4,41.9,13.9,41.9z"/>
<path class="st6" d="M23.5,157.3h17.4c2.3,0,4.2,2,4.2,4.6v18.9c0,2.5-1.9,4.6-4.2,4.6H23.5c-2.3,0-4.2-2-4.2-4.6v-18.9
	C19.3,159.3,21.1,157.3,23.5,157.3z"/>
<path class="st7" d="M23.5,157.3h17.4c2.3,0,4.2,2,4.2,4.6v18.9c0,2.5-1.9,4.6-4.2,4.6H23.5c-2.3,0-4.2-2-4.2-4.6v-18.9
	C19.3,159.3,21.1,157.3,23.5,157.3z"/>
<path class="st6" d="M318.7,187.5h17.4c2.3,0,4.2,2,4.2,4.6V211c0,2.5-1.9,4.6-4.2,4.6h-17.4c-2.3,0-4.2-2-4.2-4.6v-18.9
	C314.5,189.5,316.4,187.5,318.7,187.5z"/>
<path class="st8" d="M318.7,187.5h17.4c2.3,0,4.2,2,4.2,4.6V211c0,2.5-1.9,4.6-4.2,4.6h-17.4c-2.3,0-4.2-2-4.2-4.6v-18.9
	C314.5,189.5,316.4,187.5,318.7,187.5z"/>
<path class="st6" d="M311.5,50.4H329c2.3,0,4.2,2,4.2,4.6v18.9c0,2.5-1.9,4.6-4.2,4.6h-17.4c-2.3,0-4.2-2-4.2-4.6V55
	C307.3,52.4,309.2,50.4,311.5,50.4z"/>
<path class="st8" d="M311.5,50.4H329c2.3,0,4.2,2,4.2,4.6v18.9c0,2.5-1.9,4.6-4.2,4.6h-17.4c-2.3,0-4.2-2-4.2-4.6V55
	C307.3,52.4,309.2,50.4,311.5,50.4z"/>
<path class="st6" d="M369,98.7h29.8c4,0,7.2,3.5,7.2,7.8v32.3c0,4.3-3.2,7.8-7.2,7.8H369c-4,0-7.2-3.5-7.2-7.8v-32.3
	C361.8,102.2,365,98.7,369,98.7z"/>
<rect x="111.1" y="32" class="st1" width="29.9" height="32.4"/>
<rect x="258.1" y="56.6" class="st1" width="22.3" height="17.9"/>
</svg>
