<svg xmlns="http://www.w3.org/2000/svg" viewBox="0 0 400 300" width="406" height="306" class="illustration"><g id="_503_spotlight_outline" data-name="#503_spotlight_outline"><path d="M96.77,75.59H135.4a0,0,0,0,1,0,0V112a0,0,0,0,1,0,0H96.77a3.15,3.15,0,0,1-3.15-3.15V78.74a3.15,3.15,0,0,1,3.15-3.15Z" transform="translate(114.52 -54.23) rotate(50.69)" fill="#68e1fd"></path><path d="M113.67,122.46h-.09a1,1,0,0,1-.68-.36L88.43,92.21A4.15,4.15,0,0,1,89,86.37l23.27-19.05a4.15,4.15,0,0,1,5.84.58l24.47,29.88a1,1,0,0,1-.14,1.41l-28.14,23A1,1,0,0,1,113.67,122.46Zm1.23-54.08a2.14,2.14,0,0,0-1.36.49l-23.26,19a2.16,2.16,0,0,0-.3,3l23.83,29.11L140.4,98.28,116.57,69.17a2.12,2.12,0,0,0-1.45-.78Z" fill="#093f68"></path><path d="M102.25,59.43h0a0,0,0,0,1,0,0V91a0,0,0,0,1,0,0h0a6.77,6.77,0,0,1-6.77-6.77v-18a6.77,6.77,0,0,1,6.77-6.77Z" transform="translate(94.43 -48.93) rotate(50.69)" fill="#68e1fd"></path><path d="M88.79,88.84H88.7a1,1,0,0,1-.68-.36,7.76,7.76,0,0,1,1.09-10.93l14-11.43A7.77,7.77,0,0,1,114,67.2a1,1,0,0,1,.22.73,1,1,0,0,1-.36.68l-24.43,20A1,1,0,0,1,88.79,88.84ZM108,66.35a5.75,5.75,0,0,0-3.65,1.31l-14,11.43A5.77,5.77,0,0,0,89,86.38l22.75-18.63a5.75,5.75,0,0,0-3.19-1.37Z" fill="#093f68"></path><path d="M117.07,59.66h9.56a0,0,0,0,1,0,0V93a4.78,4.78,0,0,1-4.78,4.78h0A4.78,4.78,0,0,1,117.07,93V59.66A0,0,0,0,1,117.07,59.66Z" transform="translate(13.15 -17.35) rotate(8.61)" fill="#68e1fd"></path><path d="M119.72,98.57a6.33,6.33,0,0,1-.86-.06A5.8,5.8,0,0,1,114,91.93L119,59a1,1,0,0,1,.4-.66,1,1,0,0,1,.74-.18l9.46,1.43a1,1,0,0,1,.84,1.14l-5,32.92A5.8,5.8,0,0,1,119.72,98.57Zm1.09-38.27L116,92.22a3.78,3.78,0,0,0,7.48,1.14l4.83-31.93Z" fill="#093f68"></path><circle cx="119.87" cy="90.83" r="2.04" fill="#093f68"></circle><path d="M147.43,239.22a1,1,0,0,1-1-.72L112.71,121.73a1,1,0,0,1,1.93-.55l33.75,116.76a1,1,0,0,1-.68,1.24A1,1,0,0,1,147.43,239.22Z" fill="#093f68"></path><path d="M285.46,214.43a1,1,0,0,1-.62-.21L141.19,99.2a1,1,0,0,1-.16-1.41,1,1,0,0,1,1.41-.15l143.65,115a1,1,0,0,1,.15,1.41A1,1,0,0,1,285.46,214.43Z" fill="#093f68"></path><path d="M267.75,75.59h38.62a0,0,0,0,1,0,0V112a0,0,0,0,1,0,0H267.75a3.15,3.15,0,0,1-3.15-3.15V78.74a3.15,3.15,0,0,1,3.15-3.15Z" transform="translate(538.91 -67.7) rotate(129.31)" fill="#68e1fd"></path><path d="M286.32,122.46a1,1,0,0,1-.63-.23l-28.14-23a1,1,0,0,1-.36-.67,1.08,1.08,0,0,1,.22-.74L281.88,67.9a4.15,4.15,0,0,1,5.84-.58L311,86.37a4.15,4.15,0,0,1,.58,5.84L287.1,122.09A1,1,0,0,1,286.32,122.46ZM259.59,98.28l26.59,21.77L310,90.94a2.16,2.16,0,0,0-.3-3l-23.26-19a2.15,2.15,0,0,0-3,.3Z" fill="#093f68"></path><path d="M304.52,59.43h0a0,0,0,0,1,0,0V91a0,0,0,0,1,0,0h0a6.77,6.77,0,0,1-6.77-6.77v-18a6.77,6.77,0,0,1,6.77-6.77Z" transform="translate(550.11 -110.12) rotate(129.31)" fill="#68e1fd"></path><path d="M311.2,88.84a1,1,0,0,1-.63-.23l-24.43-20A1,1,0,0,1,286,67.2a7.77,7.77,0,0,1,10.94-1.09l13.95,11.43A7.76,7.76,0,0,1,312,88.47,1,1,0,0,1,311.2,88.84ZM288.25,67.75,311,86.38a5.74,5.74,0,0,0,.71-3.4,5.66,5.66,0,0,0-2.09-3.89L295.67,67.66a5.76,5.76,0,0,0-7.42.09Z" fill="#093f68"></path><path d="M278.15,59.66h0a4.78,4.78,0,0,1,4.78,4.78V97.73a0,0,0,0,1,0,0h-9.56a0,0,0,0,1,0,0V64.44a4.78,4.78,0,0,1,4.78-4.78Z" transform="translate(564.94 114.89) rotate(171.39)" fill="#68e1fd"></path><path d="M280.28,98.57a5.8,5.8,0,0,1-5.72-4.91l-5-32.92a1,1,0,0,1,.18-.74,1,1,0,0,1,.66-.4l9.46-1.43A1,1,0,0,1,281,59l5,32.92a5.79,5.79,0,0,1-4.86,6.58A6.33,6.33,0,0,1,280.28,98.57Zm-8.57-37.14,4.83,31.93A3.78,3.78,0,1,0,284,92.22L279.19,60.3Z" fill="#093f68"></path><circle cx="280.13" cy="90.83" r="2.04" fill="#093f68"></circle><path d="M251.81,241.84a.84.84,0,0,1-.27,0,1,1,0,0,1-.69-1.24l34.51-119.38a1,1,0,0,1,1.93.55L252.77,241.12A1,1,0,0,1,251.81,241.84Z" fill="#093f68"></path><path d="M114.54,214.43a1,1,0,0,1-.78-.37,1,1,0,0,1,.15-1.41l143.65-115a1,1,0,0,1,1.41.15,1,1,0,0,1-.16,1.41l-143.65,115A1,1,0,0,1,114.54,214.43Z" fill="#093f68"></path><path d="M195.16,193a1,1,0,0,1-.7-.3,1,1,0,0,1,0-1.41l7.37-7.37a1,1,0,0,1,1.41,1.41l-7.37,7.37A1,1,0,0,1,195.16,193Z" fill="#093f68"></path><path d="M181.23,206.91a1,1,0,0,1-.71-.29,1,1,0,0,1,0-1.42l7.38-7.37a1,1,0,0,1,1.41,1.41l-7.37,7.38A1,1,0,0,1,181.23,206.91Z" fill="#093f68"></path><path d="M202.54,206.91a1,1,0,0,1-.71-.29l-7.37-7.38a1,1,0,0,1,1.41-1.41l7.37,7.37a1,1,0,0,1-.7,1.71Z" fill="#093f68"></path><path d="M188.6,193a1,1,0,0,1-.7-.3l-7.38-7.37a1,1,0,0,1,0-1.41,1,1,0,0,1,1.42,0l7.37,7.37a1,1,0,0,1-.71,1.71Z" fill="#093f68"></path><path d="M157.65,150.37a1,1,0,0,1-.71-.29,1,1,0,0,1,0-1.42l4.06-4a1,1,0,0,1,1.41,1.41l-4,4.06A1,1,0,0,1,157.65,150.37Z" fill="#093f68"></path><path d="M150,158a1,1,0,0,1-.7-.29,1,1,0,0,1,0-1.41l4.05-4.06a1,1,0,0,1,1.42,1.42l-4.06,4.05A1,1,0,0,1,150,158Z" fill="#093f68"></path><path d="M161.7,158a1,1,0,0,1-.7-.29l-4.06-4.05a1,1,0,0,1,1.42-1.42l4,4.06a1,1,0,0,1,0,1.41A1,1,0,0,1,161.7,158Z" fill="#093f68"></path><path d="M154,150.37a1,1,0,0,1-.71-.29L149.28,146a1,1,0,0,1,1.41-1.41l4.06,4a1,1,0,0,1,0,1.42A1,1,0,0,1,154,150.37Z" fill="#093f68"></path><path d="M108.59,187.48a1,1,0,0,1-.7-.29,1,1,0,0,1,0-1.41l4-4.06a1,1,0,0,1,1.42,1.42l-4.06,4.05A1,1,0,0,1,108.59,187.48Z" fill="#093f68"></path><path d="M100.93,195.15a1,1,0,0,1-.71-.29,1,1,0,0,1,0-1.42l4.06-4.05a1,1,0,0,1,1.41,1.41l-4,4.06A1,1,0,0,1,100.93,195.15Z" fill="#093f68"></path><path d="M112.65,195.15a1,1,0,0,1-.71-.29l-4-4.06a1,1,0,0,1,1.41-1.41l4.06,4.05a1,1,0,0,1,0,1.42A1,1,0,0,1,112.65,195.15Z" fill="#093f68"></path><path d="M105,187.48a1,1,0,0,1-.7-.29l-4.06-4.05a1,1,0,0,1,1.42-1.42l4,4.06a1,1,0,0,1,0,1.41A1,1,0,0,1,105,187.48Z" fill="#093f68"></path><path d="M293.5,179a1,1,0,0,1-.71-1.7l4.06-4.06a1,1,0,0,1,1.41,0,1,1,0,0,1,0,1.41l-4.05,4.06A1,1,0,0,1,293.5,179Z" fill="#093f68"></path><path d="M285.84,186.7a1,1,0,0,1-.71-.29,1,1,0,0,1,0-1.42l4.06-4.05a1,1,0,0,1,1.41,0,1,1,0,0,1,0,1.41l-4.06,4.06A1,1,0,0,1,285.84,186.7Z" fill="#093f68"></path><path d="M297.56,186.7a1,1,0,0,1-.71-.29l-4.06-4.06a1,1,0,1,1,1.42-1.41l4.05,4.05a1,1,0,0,1,0,1.42A1,1,0,0,1,297.56,186.7Z" fill="#093f68"></path><path d="M289.89,179a1,1,0,0,1-.7-.29l-4.06-4.06a1,1,0,0,1,1.41-1.41l4.06,4.06a1,1,0,0,1,0,1.41A1,1,0,0,1,289.89,179Z" fill="#093f68"></path><path d="M198.71,82.75s-.47,7.32-9.57,10.83c0,0,8.76,4.09,10.23,11.22,0,0,2.34-11,9.19-11.22C208.56,93.58,201.15,92.41,198.71,82.75Z" fill="#ffbc0e"></path><path d="M199.37,105.8h0a1,1,0,0,1-1-.79c-1.35-6.57-9.59-10.48-9.68-10.52a1,1,0,0,1,.07-1.84c8.35-3.22,8.91-9.7,8.93-10a1,1,0,0,1,2-.18c2.24,8.87,8.77,10,9,10.1a1,1,0,0,1-.13,2c-6,.17-8.22,10.33-8.25,10.43A1,1,0,0,1,199.37,105.8Zm-8-12.12c2.24,1.35,5.94,4,7.89,7.91,1-2.7,2.87-6.48,6-8.15a14.58,14.58,0,0,1-6.5-7.29A15.18,15.18,0,0,1,191.39,93.68Z" fill="#093f68"></path><path d="M245,136.39s-.28,4.45-5.82,6.59c0,0,5.33,2.49,6.22,6.83,0,0,1.43-6.71,5.6-6.83C251,143,246.5,142.27,245,136.39Z" fill="#ffbc0e"></path><path d="M245.41,150.81h0a1,1,0,0,1-1-.8c-.78-3.8-5.61-6.1-5.66-6.12a1,1,0,0,1,.06-1.84c4.83-1.86,5.17-5.57,5.19-5.73a1,1,0,0,1,2-.17c1.3,5.12,5,5.82,5.19,5.85a1,1,0,0,1-.13,2c-3.28.1-4.64,6-4.65,6A1,1,0,0,1,245.41,150.81Zm-4.07-7.74a13.38,13.38,0,0,1,4,3.88,9.63,9.63,0,0,1,3-4,9.18,9.18,0,0,1-3.2-3.55A9.62,9.62,0,0,1,241.34,143.07Z" fill="#093f68"></path><path d="M235.25,188.29s-.47,7.32-9.58,10.83c0,0,8.76,4.09,10.23,11.23,0,0,2.35-11,9.2-11.23C245.1,199.12,237.69,198,235.25,188.29Z" fill="#ffbc0e"></path><path d="M235.9,211.35h0a1,1,0,0,1-1-.8c-1.34-6.55-9.59-10.48-9.67-10.52a1,1,0,0,1-.58-.94,1,1,0,0,1,.64-.9c8.35-3.22,8.92-9.69,8.94-10a1,1,0,0,1,2-.18c2.26,8.93,9,10.09,9,10.1a1,1,0,0,1-.13,2c-6,.17-8.23,10.33-8.25,10.43A1,1,0,0,1,235.9,211.35Zm-8-12.13c2.23,1.35,5.94,4,7.89,7.91,1-2.7,2.87-6.48,6-8.15a14.58,14.58,0,0,1-6.5-7.29A15.11,15.11,0,0,1,227.93,199.22Z" fill="#093f68"></path><path d="M171.31,222.07s-.34,5.36-7,7.93c0,0,6.42,3,7.5,8.22,0,0,1.71-8.08,6.73-8.22C178.53,230,173.1,229.15,171.31,222.07Z" fill="#ffbc0e"></path><path d="M171.8,239.22h0a1,1,0,0,1-1-.8c-1-4.66-6.88-7.48-6.94-7.51a1,1,0,0,1,.06-1.84c5.95-2.29,6.36-6.88,6.38-7.07a1,1,0,0,1,2-.18c1.6,6.31,6.22,7.16,6.41,7.2a1,1,0,0,1-.13,2c-4.17.12-5.77,7.36-5.79,7.43A1,1,0,0,1,171.8,239.22Zm-5.3-9.13a16.07,16.07,0,0,1,5.2,5.14,11.19,11.19,0,0,1,3.91-5.33,11,11,0,0,1-4.23-4.71A11.28,11.28,0,0,1,166.5,230.09Z" fill="#093f68"></path><circle cx="107.8" cy="155.8" r="2.82" fill="#ffbc0e"></circle><path d="M107.8,159.62a3.82,3.82,0,1,1,3.82-3.82A3.83,3.83,0,0,1,107.8,159.62Zm0-5.64a1.82,1.82,0,1,0,1.82,1.82A1.82,1.82,0,0,0,107.8,154Z" fill="#093f68"></path></g></svg>